<?xml version="1.0" standalone="no"?>
<!DOCTYPE svg PUBLIC "-//W3C//DTD SVG 20010904//EN"
 "http://www.w3.org/TR/2001/REC-SVG-20010904/DTD/svg10.dtd">
<svg version="1.0" xmlns="http://www.w3.org/2000/svg"
 width="80.000000pt" height="80.000000pt" viewBox="0 0 80.000000 80.000000"
 preserveAspectRatio="xMidYMid meet">
<metadata>
Created by potrace 1.14, written by Peter Selinger 2001-2017
</metadata>
<g transform="translate(0.000000,80.000000) scale(0.100000,-0.100000)"
fill="#000000" stroke="none">
<path d="M505 740 c-3 -6 -4 -19 0 -29 4 -14 -1 -20 -22 -26 -22 -5 -31 -2
-46 16 -21 27 -36 16 -18 -13 11 -18 10 -23 -7 -40 -17 -17 -23 -18 -43 -8
-17 10 -24 10 -27 1 -2 -6 -22 -11 -44 -11 -61 0 -118 -38 -152 -99 -15 -28
-33 -51 -41 -51 -7 0 -27 -16 -44 -35 -22 -26 -31 -46 -31 -72 0 -44 30 -95
66 -112 32 -14 439 -16 476 -2 56 21 83 85 62 147 -15 44 -6 61 24 43 12 -7
24 -10 28 -6 8 8 -27 37 -37 31 -4 -2 -3 11 3 29 7 24 16 33 32 32 11 0 22 5
23 10 1 6 -8 9 -22 8 -19 -2 -25 4 -30 27 -4 16 -19 43 -34 59 -24 26 -25 30
-12 50 19 30 4 41 -18 13 -24 -32 -70 -22 -66 14 2 26 -10 41 -20 24z"/>
<path d="M651 637 c-6 -8 -8 -17 -5 -20 9 -8 44 11 44 23 0 15 -26 12 -39 -3z"/>
</g>
</svg>
